<svg version="1.1" xmlns="http://www.w3.org/2000/svg" viewBox="0 0 340 143">
  <circle cx="27.5" cy="7.5" r="5" fill="#cd3731"></circle>
  <text x="27.5" y="17.5" font-size="5" font-family="system-ui" alignment-baseline="middle" text-anchor="middle">npm</text>
  <circle cx="43.5" cy="7.5" r="5" fill="#248ebd"></circle>
  <text x="43.5" y="17.5" font-size="5" font-family="system-ui" alignment-baseline="middle" text-anchor="middle">yarn</text>
  <circle cx="59.5" cy="7.5" r="5" fill="#fbae00"></circle>
  <text x="59.5" y="17.5" font-size="5" font-family="system-ui" alignment-baseline="middle" text-anchor="middle">pnpm</text>
  <line x1="10" y1="25" x2="330" y2="25" stroke-width="0.5" stroke="#cacaca"></line>
  <text x="9" y="25" fill="#cacaca" font-size="6" font-family="system-ui" alignment-baseline="middle" text-anchor="end">75</text>
  <line x1="10" y1="45" x2="330" y2="45" stroke-width="0.5" stroke="#cacaca"></line>
  <text x="9" y="45" fill="#cacaca" font-size="6" font-family="system-ui" alignment-baseline="middle" text-anchor="end">60</text>
  <line x1="10" y1="65" x2="330" y2="65" stroke-width="0.5" stroke="#cacaca"></line>
  <text x="9" y="65" fill="#cacaca" font-size="6" font-family="system-ui" alignment-baseline="middle" text-anchor="end">45</text>
  <line x1="10" y1="85" x2="330" y2="85" stroke-width="0.5" stroke="#cacaca"></line>
  <text x="9" y="85" fill="#cacaca" font-size="6" font-family="system-ui" alignment-baseline="middle" text-anchor="end">30</text>
  <line x1="10" y1="105" x2="330" y2="105" stroke-width="0.5" stroke="#cacaca"></line>
  <text x="9" y="105" fill="#cacaca" font-size="6" font-family="system-ui" alignment-baseline="middle" text-anchor="end">15</text>
  <text x="9" y="125" fill="#cacaca" font-size="6" font-family="system-ui" alignment-baseline="middle" text-anchor="end">0</text>
  <rect x="20" y="51" width="15" height="74" fill="#cd3731" rx="1" ry="1"></rect>
  <rect x="36" y="32" width="15" height="93" fill="#248ebd" rx="1" ry="1"></rect>
  <rect x="52" y="72" width="15" height="53" fill="#fbae00" rx="1" ry="1"></rect>
  <rect x="83" y="118" width="15" height="7" fill="#cd3731" rx="1" ry="1"></rect>
  <rect x="99" y="123" width="15" height="2" fill="#248ebd" rx="1" ry="1"></rect>
  <rect x="115" y="122" width="15" height="3" fill="#fbae00" rx="1" ry="1"></rect>
  <rect x="146" y="108" width="15" height="17" fill="#cd3731" rx="1" ry="1"></rect>
  <rect x="162" y="104" width="15" height="21" fill="#248ebd" rx="1" ry="1"></rect>
  <rect x="178" y="109" width="15" height="16" fill="#fbae00" rx="1" ry="1"></rect>
  <rect x="209" y="97" width="15" height="28" fill="#cd3731" rx="1" ry="1"></rect>
  <rect x="225" y="89" width="15" height="36" fill="#248ebd" rx="1" ry="1"></rect>
  <rect x="241" y="97" width="15" height="28" fill="#fbae00" rx="1" ry="1"></rect>
  <rect x="272" y="89" width="15" height="36" fill="#cd3731" rx="1" ry="1"></rect>
  <rect x="288" y="89" width="15" height="36" fill="#248ebd" rx="1" ry="1"></rect>
  <rect x="304" y="75" width="15" height="50" fill="#fbae00" rx="1" ry="1"></rect>
  <line x1="10" y1="125" x2="330" y2="125" stroke-width="1" stroke="#cacaca"></line>
  <text x="21" y="127" font-size="5" font-family="system-ui" alignment-baseline="hanging" text-anchor="start">clean install</text>
  <text x="84" y="127" font-size="5" font-family="system-ui" alignment-baseline="hanging" text-anchor="start">with cache</text>
  <text x="84" y="132" font-size="5" font-family="system-ui" alignment-baseline="hanging" text-anchor="start">with lockfile</text>
  <text x="84" y="137" font-size="5" font-family="system-ui" alignment-baseline="hanging" text-anchor="start">with node_modules</text>
  <text x="147" y="127" font-size="5" font-family="system-ui" alignment-baseline="hanging" text-anchor="start">with cache</text>
  <text x="147" y="132" font-size="5" font-family="system-ui" alignment-baseline="hanging" text-anchor="start">with lockfile</text>
  <text x="210" y="127" font-size="5" font-family="system-ui" alignment-baseline="hanging" text-anchor="start">with cache</text>
  <text x="273" y="127" font-size="5" font-family="system-ui" alignment-baseline="hanging" text-anchor="start">with lockfile</text>
</svg>
