<svg version="1.1" xmlns="http://www.w3.org/2000/svg" viewBox="0 0 340 148">
  <circle cx="27.5" cy="7.5" r="5" fill="#cd3731"></circle>
  <text x="27.5" y="17.5" font-size="5" font-family="system-ui" alignment-baseline="middle" text-anchor="middle">npm</text>
  <text x="27.5" y="23.5" font-size="4" font-family="system-ui" alignment-baseline="middle" text-anchor="middle">v5.5.1</text>
  <circle cx="43.5" cy="7.5" r="5" fill="#248ebd"></circle>
  <text x="43.5" y="17.5" font-size="5" font-family="system-ui" alignment-baseline="middle" text-anchor="middle">yarn</text>
  <text x="43.5" y="23.5" font-size="4" font-family="system-ui" alignment-baseline="middle" text-anchor="middle">v1.2.1</text>
  <circle cx="59.5" cy="7.5" r="5" fill="#fbae00"></circle>
  <text x="59.5" y="17.5" font-size="5" font-family="system-ui" alignment-baseline="middle" text-anchor="middle">pnpm</text>
  <text x="59.5" y="23.5" font-size="4" font-family="system-ui" alignment-baseline="middle" text-anchor="middle">v1.17.0</text>
  <text x="83" y="17.5" font-size="5" font-family="system-ui" font-style="italic" alignment-baseline="middle" fill="#888">using Node.js v8.6.0</text>
  <line x1="10" y1="30" x2="330" y2="30" stroke-width="0.5" stroke="#cacaca"></line>
  <text x="9" y="30" fill="#cacaca" font-size="6" font-family="system-ui" alignment-baseline="middle" text-anchor="end">40</text>
  <line x1="10" y1="50" x2="330" y2="50" stroke-width="0.5" stroke="#cacaca"></line>
  <text x="9" y="50" fill="#cacaca" font-size="6" font-family="system-ui" alignment-baseline="middle" text-anchor="end">32</text>
  <line x1="10" y1="70" x2="330" y2="70" stroke-width="0.5" stroke="#cacaca"></line>
  <text x="9" y="70" fill="#cacaca" font-size="6" font-family="system-ui" alignment-baseline="middle" text-anchor="end">24</text>
  <line x1="10" y1="90" x2="330" y2="90" stroke-width="0.5" stroke="#cacaca"></line>
  <text x="9" y="90" fill="#cacaca" font-size="6" font-family="system-ui" alignment-baseline="middle" text-anchor="end">16</text>
  <line x1="10" y1="110" x2="330" y2="110" stroke-width="0.5" stroke="#cacaca"></line>
  <text x="9" y="110" fill="#cacaca" font-size="6" font-family="system-ui" alignment-baseline="middle" text-anchor="end">8</text>
  <text x="9" y="130" fill="#cacaca" font-size="6" font-family="system-ui" alignment-baseline="middle" text-anchor="end">0</text>
  <rect x="20" y="31" width="15" height="99" fill="#cd3731" rx="1" ry="1"></rect>
  <rect x="36" y="48" width="15" height="82" fill="#248ebd" rx="1" ry="1"></rect>
  <rect x="52" y="68" width="15" height="62" fill="#fbae00" rx="1" ry="1"></rect>
  <rect x="83" y="112" width="15" height="18" fill="#cd3731" rx="1" ry="1"></rect>
  <rect x="99" y="127" width="15" height="3" fill="#248ebd" rx="1" ry="1"></rect>
  <rect x="115" y="126" width="15" height="4" fill="#fbae00" rx="1" ry="1"></rect>
  <rect x="146" y="77" width="15" height="53" fill="#cd3731" rx="1" ry="1"></rect>
  <rect x="162" y="109" width="15" height="21" fill="#248ebd" rx="1" ry="1"></rect>
  <rect x="178" y="103" width="15" height="27" fill="#fbae00" rx="1" ry="1"></rect>
  <rect x="209" y="59" width="15" height="71" fill="#cd3731" rx="1" ry="1"></rect>
  <rect x="225" y="80" width="15" height="50" fill="#248ebd" rx="1" ry="1"></rect>
  <rect x="241" y="99" width="15" height="31" fill="#fbae00" rx="1" ry="1"></rect>
  <rect x="272" y="66" width="15" height="64" fill="#cd3731" rx="1" ry="1"></rect>
  <rect x="288" y="89" width="15" height="41" fill="#248ebd" rx="1" ry="1"></rect>
  <rect x="304" y="72" width="15" height="58" fill="#fbae00" rx="1" ry="1"></rect>
  <line x1="10" y1="130" x2="330" y2="130" stroke-width="1" stroke="#cacaca"></line>
  <text x="21" y="132" font-size="5" font-family="system-ui" alignment-baseline="hanging" text-anchor="start">clean install</text>
  <text x="84" y="132" font-size="5" font-family="system-ui" alignment-baseline="hanging" text-anchor="start">with cache</text>
  <text x="84" y="137" font-size="5" font-family="system-ui" alignment-baseline="hanging" text-anchor="start">with lockfile</text>
  <text x="84" y="142" font-size="5" font-family="system-ui" alignment-baseline="hanging" text-anchor="start">with node_modules</text>
  <text x="147" y="132" font-size="5" font-family="system-ui" alignment-baseline="hanging" text-anchor="start">with cache</text>
  <text x="147" y="137" font-size="5" font-family="system-ui" alignment-baseline="hanging" text-anchor="start">with lockfile</text>
  <text x="210" y="132" font-size="5" font-family="system-ui" alignment-baseline="hanging" text-anchor="start">with cache</text>
  <text x="273" y="132" font-size="5" font-family="system-ui" alignment-baseline="hanging" text-anchor="start">with lockfile</text>
</svg>
