<svg version="1.1" xmlns="http://www.w3.org/2000/svg" viewBox="0 0 340 143">
  <circle cx="27.5" cy="7.5" r="5" fill="#cd3731"></circle>
  <text x="27.5" y="17.5" font-size="5" font-family="system-ui" alignment-baseline="middle" text-anchor="middle">npm</text>
  <circle cx="43.5" cy="7.5" r="5" fill="#248ebd"></circle>
  <text x="43.5" y="17.5" font-size="5" font-family="system-ui" alignment-baseline="middle" text-anchor="middle">yarn</text>
  <circle cx="59.5" cy="7.5" r="5" fill="#4c4c4c"></circle>
  <text x="59.5" y="17.5" font-size="5" font-family="system-ui" alignment-baseline="middle" text-anchor="middle">pnpm</text>
  <line x1="10" y1="25" x2="330" y2="25" stroke-width="0.5" stroke="#cacaca"></line>
  <text x="9" y="25" fill="#cacaca" font-size="6" font-family="system-ui" alignment-baseline="middle" text-anchor="end">20</text>
  <line x1="10" y1="45" x2="330" y2="45" stroke-width="0.5" stroke="#cacaca"></line>
  <text x="9" y="45" fill="#cacaca" font-size="6" font-family="system-ui" alignment-baseline="middle" text-anchor="end">16</text>
  <line x1="10" y1="65" x2="330" y2="65" stroke-width="0.5" stroke="#cacaca"></line>
  <text x="9" y="65" fill="#cacaca" font-size="6" font-family="system-ui" alignment-baseline="middle" text-anchor="end">12</text>
  <line x1="10" y1="85" x2="330" y2="85" stroke-width="0.5" stroke="#cacaca"></line>
  <text x="9" y="85" fill="#cacaca" font-size="6" font-family="system-ui" alignment-baseline="middle" text-anchor="end">8</text>
  <line x1="10" y1="105" x2="330" y2="105" stroke-width="0.5" stroke="#cacaca"></line>
  <text x="9" y="105" fill="#cacaca" font-size="6" font-family="system-ui" alignment-baseline="middle" text-anchor="end">4</text>
  <text x="9" y="125" fill="#cacaca" font-size="6" font-family="system-ui" alignment-baseline="middle" text-anchor="end">0</text>
  <rect x="20" y="57" width="15" height="68" fill="#cd3731" rx="1" ry="1"></rect>
  <rect x="36" y="45" width="15" height="80" fill="#248ebd" rx="1" ry="1"></rect>
  <rect x="52" y="73" width="15" height="52" fill="#4c4c4c" rx="1" ry="1"></rect>
  <rect x="83" y="107" width="15" height="18" fill="#cd3731" rx="1" ry="1"></rect>
  <rect x="99" y="121" width="15" height="4" fill="#248ebd" rx="1" ry="1"></rect>
  <rect x="115" y="119" width="15" height="6" fill="#4c4c4c" rx="1" ry="1"></rect>
  <rect x="146" y="90" width="15" height="35" fill="#cd3731" rx="1" ry="1"></rect>
  <rect x="162" y="107" width="15" height="18" fill="#248ebd" rx="1" ry="1"></rect>
  <rect x="178" y="106" width="15" height="19" fill="#4c4c4c" rx="1" ry="1"></rect>
  <rect x="209" y="82" width="15" height="43" fill="#cd3731" rx="1" ry="1"></rect>
  <rect x="225" y="72" width="15" height="53" fill="#248ebd" rx="1" ry="1"></rect>
  <rect x="241" y="92" width="15" height="33" fill="#4c4c4c" rx="1" ry="1"></rect>
  <rect x="272" y="80" width="15" height="45" fill="#cd3731" rx="1" ry="1"></rect>
  <rect x="288" y="69" width="15" height="56" fill="#248ebd" rx="1" ry="1"></rect>
  <rect x="304" y="74" width="15" height="51" fill="#4c4c4c" rx="1" ry="1"></rect>
  <line x1="10" y1="125" x2="330" y2="125" stroke-width="1" stroke="#cacaca"></line>
  <text x="21" y="127" font-size="5" font-family="system-ui" alignment-baseline="hanging" text-anchor="start">clean install</text>
  <text x="84" y="127" font-size="5" font-family="system-ui" alignment-baseline="hanging" text-anchor="start">with cache</text>
  <text x="84" y="132" font-size="5" font-family="system-ui" alignment-baseline="hanging" text-anchor="start">with lockfile</text>
  <text x="84" y="137" font-size="5" font-family="system-ui" alignment-baseline="hanging" text-anchor="start">with node_modules</text>
  <text x="147" y="127" font-size="5" font-family="system-ui" alignment-baseline="hanging" text-anchor="start">with cache</text>
  <text x="147" y="132" font-size="5" font-family="system-ui" alignment-baseline="hanging" text-anchor="start">with lockfile</text>
  <text x="210" y="127" font-size="5" font-family="system-ui" alignment-baseline="hanging" text-anchor="start">with cache</text>
  <text x="273" y="127" font-size="5" font-family="system-ui" alignment-baseline="hanging" text-anchor="start">with lockfile</text>
</svg>
