<svg version="1.1" xmlns="http://www.w3.org/2000/svg" viewBox="0 0 300 237">
  <circle cx="44" cy="6" r="4" fill="#cd3731"></circle>
  <text x="44" y="11" font-size="4" font-family="system-ui" alignment-baseline="hanging" text-anchor="middle">npm</text>
  <text x="44" y="16" font-size="3" font-family="system-ui" alignment-baseline="hanging" text-anchor="middle">v6.1.0</text>
  <circle cx="56" cy="6" r="4" fill="#248ebd"></circle>
  <text x="56" y="11" font-size="4" font-family="system-ui" alignment-baseline="hanging" text-anchor="middle">yarn</text>
  <text x="56" y="16" font-size="3" font-family="system-ui" alignment-baseline="hanging" text-anchor="middle">v1.7.0</text>
  <circle cx="68" cy="6" r="4" fill="#fbae00"></circle>
  <text x="68" y="11" font-size="4" font-family="system-ui" alignment-baseline="hanging" text-anchor="middle">pnpm</text>
  <text x="68" y="16" font-size="3" font-family="system-ui" alignment-baseline="hanging" text-anchor="middle">v2.8.0</text>
  <text x="40" y="28" fill="#888" font-size="5" font-family="system-ui" text-anchor="middle">0</text>
  <text x="40" y="224" fill="#888" font-size="5" font-family="system-ui" text-anchor="middle" alignment-baseline="hanging">0</text>
  <line x1="90" y1="31" x2="90" y2="223" stroke-width="0.5" stroke="#cacaca"></line>
  <text x="90" y="28" fill="#888" font-size="5" font-family="system-ui" text-anchor="middle">8</text>
  <text x="90" y="224" fill="#888" font-size="5" font-family="system-ui" text-anchor="middle" alignment-baseline="hanging">8</text>
  <line x1="140" y1="31" x2="140" y2="223" stroke-width="0.5" stroke="#cacaca"></line>
  <text x="140" y="28" fill="#888" font-size="5" font-family="system-ui" text-anchor="middle">16</text>
  <text x="140" y="224" fill="#888" font-size="5" font-family="system-ui" text-anchor="middle" alignment-baseline="hanging">16</text>
  <line x1="190" y1="31" x2="190" y2="223" stroke-width="0.5" stroke="#cacaca"></line>
  <text x="190" y="28" fill="#888" font-size="5" font-family="system-ui" text-anchor="middle">24</text>
  <text x="190" y="224" fill="#888" font-size="5" font-family="system-ui" text-anchor="middle" alignment-baseline="hanging">24</text>
  <line x1="240" y1="31" x2="240" y2="223" stroke-width="0.5" stroke="#cacaca"></line>
  <text x="240" y="28" fill="#888" font-size="5" font-family="system-ui" text-anchor="middle">32</text>
  <text x="240" y="224" fill="#888" font-size="5" font-family="system-ui" text-anchor="middle" alignment-baseline="hanging">32</text>
  <line x1="290" y1="31" x2="290" y2="223" stroke-width="0.5" stroke="#cacaca"></line>
  <text x="290" y="28" fill="#888" font-size="5" font-family="system-ui" text-anchor="middle">40</text>
  <text x="290" y="224" fill="#888" font-size="5" font-family="system-ui" text-anchor="middle" alignment-baseline="hanging">40</text>
  <text x="290" y="20" font-size="4" font-family="system-ui" font-style="italic" text-anchor="end" fill="#888">Installation time in seconds (lower is better)</text>
  <rect x="40" y="35" width="168" height="6" fill="#cd3731" rx="1" ry="1"></rect>
  <rect x="40" y="41.5" width="230" height="6" fill="#248ebd" rx="1" ry="1"></rect>
  <rect x="40" y="48" width="145" height="6" fill="#fbae00" rx="1" ry="1"></rect>
  <rect x="40" y="58.5" width="46" height="6" fill="#cd3731" rx="1" ry="1"></rect>
  <rect x="40" y="65" width="6" height="6" fill="#248ebd" rx="1" ry="1"></rect>
  <rect x="40" y="71.5" width="6" height="6" fill="#fbae00" rx="1" ry="1"></rect>
  <rect x="40" y="82" width="88" height="6" fill="#cd3731" rx="1" ry="1"></rect>
  <rect x="40" y="88.5" width="34" height="6" fill="#248ebd" rx="1" ry="1"></rect>
  <rect x="40" y="95" width="34" height="6" fill="#fbae00" rx="1" ry="1"></rect>
  <rect x="40" y="105.5" width="99" height="6" fill="#cd3731" rx="1" ry="1"></rect>
  <rect x="40" y="112" width="188" height="6" fill="#248ebd" rx="1" ry="1"></rect>
  <rect x="40" y="118.5" width="64" height="6" fill="#fbae00" rx="1" ry="1"></rect>
  <rect x="40" y="129" width="108" height="6" fill="#cd3731" rx="1" ry="1"></rect>
  <rect x="40" y="135.5" width="112" height="6" fill="#248ebd" rx="1" ry="1"></rect>
  <rect x="40" y="142" width="123" height="6" fill="#fbae00" rx="1" ry="1"></rect>
  <rect x="40" y="152.5" width="48" height="6" fill="#cd3731" rx="1" ry="1"></rect>
  <rect x="40" y="159" width="148" height="6" fill="#248ebd" rx="1" ry="1"></rect>
  <rect x="40" y="165.5" width="52" height="6" fill="#fbae00" rx="1" ry="1"></rect>
  <rect x="40" y="176" width="46" height="6" fill="#cd3731" rx="1" ry="1"></rect>
  <rect x="40" y="182.5" width="6" height="6" fill="#248ebd" rx="1" ry="1"></rect>
  <rect x="40" y="189" width="6" height="6" fill="#fbae00" rx="1" ry="1"></rect>
  <rect x="40" y="199.5" width="45" height="6" fill="#cd3731" rx="1" ry="1"></rect>
  <rect x="40" y="206" width="238" height="6" fill="#248ebd" rx="1" ry="1"></rect>
  <rect x="40" y="212.5" width="130" height="6" fill="#fbae00" rx="1" ry="1"></rect>
  <line x1="40" y1="31" x2="40" y2="223" stroke-width="1" stroke="#cacaca"></line>
  <text x="38" y="44.5" font-size="4" font-family="system-ui" alignment-baseline="middle" text-anchor="end">clean install</text>
  <text x="38" y="64" font-size="4" font-family="system-ui" alignment-baseline="middle" text-anchor="end">with cache</text>
  <text x="38" y="68" font-size="4" font-family="system-ui" alignment-baseline="middle" text-anchor="end">with lockfile</text>
  <text x="38" y="72" font-size="4" font-family="system-ui" alignment-baseline="middle" text-anchor="end">with node_modules</text>
  <text x="38" y="89.5" font-size="4" font-family="system-ui" alignment-baseline="middle" text-anchor="end">with cache</text>
  <text x="38" y="93.5" font-size="4" font-family="system-ui" alignment-baseline="middle" text-anchor="end">with lockfile</text>
  <text x="38" y="115" font-size="4" font-family="system-ui" alignment-baseline="middle" text-anchor="end">with cache</text>
  <text x="38" y="138.5" font-size="4" font-family="system-ui" alignment-baseline="middle" text-anchor="end">with lockfile</text>
  <text x="38" y="160" font-size="4" font-family="system-ui" alignment-baseline="middle" text-anchor="end">with cache</text>
  <text x="38" y="164" font-size="4" font-family="system-ui" alignment-baseline="middle" text-anchor="end">with node_modules</text>
  <text x="38" y="183.5" font-size="4" font-family="system-ui" alignment-baseline="middle" text-anchor="end">with node_modules</text>
  <text x="38" y="187.5" font-size="4" font-family="system-ui" alignment-baseline="middle" text-anchor="end">with lockfile</text>
  <text x="38" y="209" font-size="4" font-family="system-ui" alignment-baseline="middle" text-anchor="end">with node_modules</text>
  <text x="290" y="235" font-size="4" font-family="system-ui" text-anchor="end" fill="#888">Tests were run using Node.js v10.5.0</text>
</svg>
