<svg version="1.1" xmlns="http://www.w3.org/2000/svg" viewBox="0 0 355 144"><rect x="22.5" y="5" width="10" height="10" fill="#cd3731"></rect><text x="37" y="10" font-size="6" font-family="system-ui" alignment-baseline="middle">npm</text><rect x="105.5" y="5" width="10" height="10" fill="#248ebd"></rect><text x="120" y="10" font-size="6" font-family="system-ui" alignment-baseline="middle">yarn</text><rect x="188.5" y="5" width="10" height="10" fill="#4c4c4c"></rect><text x="203" y="10" font-size="6" font-family="system-ui" alignment-baseline="middle">pnpm</text><line x1="10" y1="20" x2="345" y2="20" stroke-width="1" stroke="#cacaca"></line><text x="9" y="20" font-size="6" font-family="system-ui" alignment-baseline="middle" text-anchor="end">20</text><line x1="10" y1="40" x2="345" y2="40" stroke-width="1" stroke="#cacaca"></line><text x="9" y="40" font-size="6" font-family="system-ui" alignment-baseline="middle" text-anchor="end">16</text><line x1="10" y1="60" x2="345" y2="60" stroke-width="1" stroke="#cacaca"></line><text x="9" y="60" font-size="6" font-family="system-ui" alignment-baseline="middle" text-anchor="end">12</text><line x1="10" y1="80" x2="345" y2="80" stroke-width="1" stroke="#cacaca"></line><text x="9" y="80" font-size="6" font-family="system-ui" alignment-baseline="middle" text-anchor="end">8</text><line x1="10" y1="100" x2="345" y2="100" stroke-width="1" stroke="#cacaca"></line><text x="9" y="100" font-size="6" font-family="system-ui" alignment-baseline="middle" text-anchor="end">4</text><line x1="10" y1="120" x2="345" y2="120" stroke-width="1" stroke="#cacaca"></line><text x="9" y="120" font-size="6" font-family="system-ui" alignment-baseline="middle" text-anchor="end">0</text><rect x="20" y="52" width="15" height="68" fill="#cd3731"></rect><rect x="37" y="40" width="15" height="80" fill="#248ebd"></rect><rect x="54" y="68" width="15" height="52" fill="#4c4c4c"></rect><text x="20" y="122" font-size="6" font-family="system-ui" alignment-baseline="hanging" text-anchor="start">clean install</text><rect x="86" y="102" width="15" height="18" fill="#cd3731"></rect><rect x="103" y="116" width="15" height="4" fill="#248ebd"></rect><rect x="120" y="114" width="15" height="6" fill="#4c4c4c"></rect><text x="86" y="122" font-size="6" font-family="system-ui" alignment-baseline="hanging" text-anchor="start">cache</text><text x="86" y="128" font-size="6" font-family="system-ui" alignment-baseline="hanging" text-anchor="start">lockfile</text><text x="86" y="134" font-size="6" font-family="system-ui" alignment-baseline="hanging" text-anchor="start">node_modules</text><rect x="152" y="85" width="15" height="35" fill="#cd3731"></rect><rect x="169" y="102" width="15" height="18" fill="#248ebd"></rect><rect x="186" y="101" width="15" height="19" fill="#4c4c4c"></rect><text x="152" y="122" font-size="6" font-family="system-ui" alignment-baseline="hanging" text-anchor="start">cache</text><text x="152" y="128" font-size="6" font-family="system-ui" alignment-baseline="hanging" text-anchor="start">lockfile</text><rect x="218" y="77" width="15" height="43" fill="#cd3731"></rect><rect x="235" y="67" width="15" height="53" fill="#248ebd"></rect><rect x="252" y="87" width="15" height="33" fill="#4c4c4c"></rect><text x="218" y="122" font-size="6" font-family="system-ui" alignment-baseline="hanging" text-anchor="start">cache</text><rect x="284" y="75" width="15" height="45" fill="#cd3731"></rect><rect x="301" y="64" width="15" height="56" fill="#248ebd"></rect><rect x="318" y="69" width="15" height="51" fill="#4c4c4c"></rect><text x="284" y="122" font-size="6" font-family="system-ui" alignment-baseline="hanging" text-anchor="start">lockfile</text></svg>