<svg version="1.1" xmlns="http://www.w3.org/2000/svg" viewBox="0 0 300 185">
  <circle cx="44" cy="6" r="4" fill="#ffdf96"></circle>
  <text x="44" y="11" font-size="4" font-family="system-ui" alignment-baseline="hanging" text-anchor="middle">pnpm1</text>
  <text x="44" y="16" font-size="3" font-family="system-ui" alignment-baseline="hanging" text-anchor="middle">v1.0.1</text>
  <circle cx="56" cy="6" r="4" fill="#fbae00"></circle>
  <text x="56" y="11" font-size="4" font-family="system-ui" alignment-baseline="hanging" text-anchor="middle">pnpm</text>
  <text x="56" y="16" font-size="3" font-family="system-ui" alignment-baseline="hanging" text-anchor="middle">v2.1.0</text>
  <text x="40" y="28" fill="#888" font-size="5" font-family="system-ui" text-anchor="middle">0</text>
  <text x="40" y="172" fill="#888" font-size="5" font-family="system-ui" text-anchor="middle" alignment-baseline="hanging">0</text>
  <line x1="90" y1="31" x2="90" y2="171" stroke-width="0.5" stroke="#cacaca"></line>
  <text x="90" y="28" fill="#888" font-size="5" font-family="system-ui" text-anchor="middle">5</text>
  <text x="90" y="172" fill="#888" font-size="5" font-family="system-ui" text-anchor="middle" alignment-baseline="hanging">5</text>
  <line x1="140" y1="31" x2="140" y2="171" stroke-width="0.5" stroke="#cacaca"></line>
  <text x="140" y="28" fill="#888" font-size="5" font-family="system-ui" text-anchor="middle">10</text>
  <text x="140" y="172" fill="#888" font-size="5" font-family="system-ui" text-anchor="middle" alignment-baseline="hanging">10</text>
  <line x1="190" y1="31" x2="190" y2="171" stroke-width="0.5" stroke="#cacaca"></line>
  <text x="190" y="28" fill="#888" font-size="5" font-family="system-ui" text-anchor="middle">15</text>
  <text x="190" y="172" fill="#888" font-size="5" font-family="system-ui" text-anchor="middle" alignment-baseline="hanging">15</text>
  <line x1="240" y1="31" x2="240" y2="171" stroke-width="0.5" stroke="#cacaca"></line>
  <text x="240" y="28" fill="#888" font-size="5" font-family="system-ui" text-anchor="middle">20</text>
  <text x="240" y="172" fill="#888" font-size="5" font-family="system-ui" text-anchor="middle" alignment-baseline="hanging">20</text>
  <line x1="290" y1="31" x2="290" y2="171" stroke-width="0.5" stroke="#cacaca"></line>
  <text x="290" y="28" fill="#888" font-size="5" font-family="system-ui" text-anchor="middle">25</text>
  <text x="290" y="172" fill="#888" font-size="5" font-family="system-ui" text-anchor="middle" alignment-baseline="hanging">25</text>
  <text x="290" y="20" font-size="4" font-family="system-ui" font-style="italic" text-anchor="end" fill="#888">Installation time in seconds (lower is better)</text>
  <rect x="40" y="35" width="227" height="6" fill="#ffdf96" rx="1" ry="1"></rect>
  <rect x="40" y="41.5" width="231" height="6" fill="#fbae00" rx="1" ry="1"></rect>
  <rect x="40" y="52" width="12" height="6" fill="#ffdf96" rx="1" ry="1"></rect>
  <rect x="40" y="58.5" width="10" height="6" fill="#fbae00" rx="1" ry="1"></rect>
  <rect x="40" y="69" width="89" height="6" fill="#ffdf96" rx="1" ry="1"></rect>
  <rect x="40" y="75.5" width="80" height="6" fill="#fbae00" rx="1" ry="1"></rect>
  <rect x="40" y="86" width="112" height="6" fill="#ffdf96" rx="1" ry="1"></rect>
  <rect x="40" y="92.5" width="116" height="6" fill="#fbae00" rx="1" ry="1"></rect>
  <rect x="40" y="103" width="202" height="6" fill="#ffdf96" rx="1" ry="1"></rect>
  <rect x="40" y="109.5" width="210" height="6" fill="#fbae00" rx="1" ry="1"></rect>
  <rect x="40" y="120" width="79" height="6" fill="#ffdf96" rx="1" ry="1"></rect>
  <rect x="40" y="126.5" width="84" height="6" fill="#fbae00" rx="1" ry="1"></rect>
  <rect x="40" y="137" width="12" height="6" fill="#ffdf96" rx="1" ry="1"></rect>
  <rect x="40" y="143.5" width="11" height="6" fill="#fbae00" rx="1" ry="1"></rect>
  <rect x="40" y="154" width="192" height="6" fill="#ffdf96" rx="1" ry="1"></rect>
  <rect x="40" y="160.5" width="203" height="6" fill="#fbae00" rx="1" ry="1"></rect>
  <line x1="40" y1="31" x2="40" y2="171" stroke-width="1" stroke="#cacaca"></line>
  <text x="38" y="44.5" font-size="4" font-family="system-ui" alignment-baseline="middle" text-anchor="end">clean install</text>
  <text x="38" y="57.5" font-size="4" font-family="system-ui" alignment-baseline="middle" text-anchor="end">with cache</text>
  <text x="38" y="61.5" font-size="4" font-family="system-ui" alignment-baseline="middle" text-anchor="end">with lockfile</text>
  <text x="38" y="65.5" font-size="4" font-family="system-ui" alignment-baseline="middle" text-anchor="end">with node_modules</text>
  <text x="38" y="76.5" font-size="4" font-family="system-ui" alignment-baseline="middle" text-anchor="end">with cache</text>
  <text x="38" y="80.5" font-size="4" font-family="system-ui" alignment-baseline="middle" text-anchor="end">with lockfile</text>
  <text x="38" y="95.5" font-size="4" font-family="system-ui" alignment-baseline="middle" text-anchor="end">with cache</text>
  <text x="38" y="112.5" font-size="4" font-family="system-ui" alignment-baseline="middle" text-anchor="end">with lockfile</text>
  <text x="38" y="127.5" font-size="4" font-family="system-ui" alignment-baseline="middle" text-anchor="end">with cache</text>
  <text x="38" y="131.5" font-size="4" font-family="system-ui" alignment-baseline="middle" text-anchor="end">with node_modules</text>
  <text x="38" y="144.5" font-size="4" font-family="system-ui" alignment-baseline="middle" text-anchor="end">with node_modules</text>
  <text x="38" y="148.5" font-size="4" font-family="system-ui" alignment-baseline="middle" text-anchor="end">with lockfile</text>
  <text x="38" y="163.5" font-size="4" font-family="system-ui" alignment-baseline="middle" text-anchor="end">with node_modules</text>
  <text x="290" y="183" font-size="4" font-family="system-ui" text-anchor="end" fill="#888">Tests were run using Node.js v10.0.0</text>
</svg>
