<svg version="1.1" xmlns="http://www.w3.org/2000/svg" viewBox="0 0 300 237">
  <circle cx="44" cy="6" r="4" fill="#cd3731"></circle>
  <text x="44" y="11" font-size="4" font-family="system-ui" alignment-baseline="hanging" text-anchor="middle">npm</text>
  <text x="44" y="16" font-size="3" font-family="system-ui" alignment-baseline="hanging" text-anchor="middle">v5.8.0</text>
  <circle cx="56" cy="6" r="4" fill="#248ebd"></circle>
  <text x="56" y="11" font-size="4" font-family="system-ui" alignment-baseline="hanging" text-anchor="middle">yarn</text>
  <text x="56" y="16" font-size="3" font-family="system-ui" alignment-baseline="hanging" text-anchor="middle">v1.6.0</text>
  <circle cx="68" cy="6" r="4" fill="#fbae00"></circle>
  <text x="68" y="11" font-size="4" font-family="system-ui" alignment-baseline="hanging" text-anchor="middle">pnpm</text>
  <text x="68" y="16" font-size="3" font-family="system-ui" alignment-baseline="hanging" text-anchor="middle">v1.41.1</text>
  <text x="40" y="28" fill="#888" font-size="5" font-family="system-ui" text-anchor="middle">0</text>
  <text x="40" y="224" fill="#888" font-size="5" font-family="system-ui" text-anchor="middle" alignment-baseline="hanging">0</text>
  <line x1="90" y1="31" x2="90" y2="223" stroke-width="0.5" stroke="#cacaca"></line>
  <text x="90" y="28" fill="#888" font-size="5" font-family="system-ui" text-anchor="middle">12</text>
  <text x="90" y="224" fill="#888" font-size="5" font-family="system-ui" text-anchor="middle" alignment-baseline="hanging">12</text>
  <line x1="140" y1="31" x2="140" y2="223" stroke-width="0.5" stroke="#cacaca"></line>
  <text x="140" y="28" fill="#888" font-size="5" font-family="system-ui" text-anchor="middle">24</text>
  <text x="140" y="224" fill="#888" font-size="5" font-family="system-ui" text-anchor="middle" alignment-baseline="hanging">24</text>
  <line x1="190" y1="31" x2="190" y2="223" stroke-width="0.5" stroke="#cacaca"></line>
  <text x="190" y="28" fill="#888" font-size="5" font-family="system-ui" text-anchor="middle">36</text>
  <text x="190" y="224" fill="#888" font-size="5" font-family="system-ui" text-anchor="middle" alignment-baseline="hanging">36</text>
  <line x1="240.00000000000003" y1="31" x2="240.00000000000003" y2="223" stroke-width="0.5" stroke="#cacaca"></line>
  <text x="240.00000000000003" y="28" fill="#888" font-size="5" font-family="system-ui" text-anchor="middle">48</text>
  <text x="240.00000000000003" y="224" fill="#888" font-size="5" font-family="system-ui" text-anchor="middle" alignment-baseline="hanging">48</text>
  <line x1="290" y1="31" x2="290" y2="223" stroke-width="0.5" stroke="#cacaca"></line>
  <text x="290" y="28" fill="#888" font-size="5" font-family="system-ui" text-anchor="middle">60</text>
  <text x="290" y="224" fill="#888" font-size="5" font-family="system-ui" text-anchor="middle" alignment-baseline="hanging">60</text>
  <text x="290" y="20" font-size="4" font-family="system-ui" font-style="italic" text-anchor="end" fill="#888">Installation time in seconds (lower is better)</text>
  <rect x="40" y="35" width="114" height="6" fill="#cd3731" rx="1" ry="1"></rect>
  <rect x="40" y="41.5" width="240" height="6" fill="#248ebd" rx="1" ry="1"></rect>
  <rect x="40" y="48" width="150" height="6" fill="#fbae00" rx="1" ry="1"></rect>
  <rect x="40" y="58.5" width="32" height="6" fill="#cd3731" rx="1" ry="1"></rect>
  <rect x="40" y="65" width="5" height="6" fill="#248ebd" rx="1" ry="1"></rect>
  <rect x="40" y="71.5" width="4" height="6" fill="#fbae00" rx="1" ry="1"></rect>
  <rect x="40" y="82" width="57" height="6" fill="#cd3731" rx="1" ry="1"></rect>
  <rect x="40" y="88.5" width="27" height="6" fill="#248ebd" rx="1" ry="1"></rect>
  <rect x="40" y="95" width="36" height="6" fill="#fbae00" rx="1" ry="1"></rect>
  <rect x="40" y="105.5" width="100" height="6" fill="#cd3731" rx="1" ry="1"></rect>
  <rect x="40" y="112" width="104" height="6" fill="#248ebd" rx="1" ry="1"></rect>
  <rect x="40" y="118.5" width="115" height="6" fill="#fbae00" rx="1" ry="1"></rect>
  <rect x="40" y="129" width="72" height="6" fill="#cd3731" rx="1" ry="1"></rect>
  <rect x="40" y="135.5" width="79" height="6" fill="#248ebd" rx="1" ry="1"></rect>
  <rect x="40" y="142" width="133" height="6" fill="#fbae00" rx="1" ry="1"></rect>
  <rect x="40" y="152.5" width="35" height="6" fill="#cd3731" rx="1" ry="1"></rect>
  <rect x="40" y="159" width="86" height="6" fill="#248ebd" rx="1" ry="1"></rect>
  <rect x="40" y="165.5" width="99" height="6" fill="#fbae00" rx="1" ry="1"></rect>
  <rect x="40" y="176" width="34" height="6" fill="#cd3731" rx="1" ry="1"></rect>
  <rect x="40" y="182.5" width="4" height="6" fill="#248ebd" rx="1" ry="1"></rect>
  <rect x="40" y="189" width="4" height="6" fill="#fbae00" rx="1" ry="1"></rect>
  <rect x="40" y="199.5" width="36" height="6" fill="#cd3731" rx="1" ry="1"></rect>
  <rect x="40" y="206" width="148" height="6" fill="#248ebd" rx="1" ry="1"></rect>
  <rect x="40" y="212.5" width="80" height="6" fill="#fbae00" rx="1" ry="1"></rect>
  <line x1="40" y1="31" x2="40" y2="223" stroke-width="1" stroke="#cacaca"></line>
  <text x="38" y="44.5" font-size="4" font-family="system-ui" alignment-baseline="middle" text-anchor="end">clean install</text>
  <text x="38" y="64" font-size="4" font-family="system-ui" alignment-baseline="middle" text-anchor="end">with cache</text>
  <text x="38" y="68" font-size="4" font-family="system-ui" alignment-baseline="middle" text-anchor="end">with lockfile</text>
  <text x="38" y="72" font-size="4" font-family="system-ui" alignment-baseline="middle" text-anchor="end">with node_modules</text>
  <text x="38" y="89.5" font-size="4" font-family="system-ui" alignment-baseline="middle" text-anchor="end">with cache</text>
  <text x="38" y="93.5" font-size="4" font-family="system-ui" alignment-baseline="middle" text-anchor="end">with lockfile</text>
  <text x="38" y="115" font-size="4" font-family="system-ui" alignment-baseline="middle" text-anchor="end">with cache</text>
  <text x="38" y="138.5" font-size="4" font-family="system-ui" alignment-baseline="middle" text-anchor="end">with lockfile</text>
  <text x="38" y="160" font-size="4" font-family="system-ui" alignment-baseline="middle" text-anchor="end">with cache</text>
  <text x="38" y="164" font-size="4" font-family="system-ui" alignment-baseline="middle" text-anchor="end">with node_modules</text>
  <text x="38" y="183.5" font-size="4" font-family="system-ui" alignment-baseline="middle" text-anchor="end">with node_modules</text>
  <text x="38" y="187.5" font-size="4" font-family="system-ui" alignment-baseline="middle" text-anchor="end">with lockfile</text>
  <text x="38" y="209" font-size="4" font-family="system-ui" alignment-baseline="middle" text-anchor="end">with node_modules</text>
  <text x="290" y="235" font-size="4" font-family="system-ui" text-anchor="end" fill="#888">Tests were run using Node.js v9.10.1</text>
</svg>
