<svg version="1.1" xmlns="http://www.w3.org/2000/svg" viewBox="0 0 300 260.5">
  <style>
    .font { font-family: sans-serif; }
    .s3 { font-size: 3px; }
    .s4 { font-size: 4px; }
    .s5 { font-size: 5px; }
    .line { stroke: #cacaca; }
    .width { stroke-width: 0.5; }
    .text { fill: #888; }
  </style>
  <circle cx="44" cy="6" r="4" fill="#cd3731"></circle>
  <text x="44" y="14" class="font s4" text-anchor="middle">npm</text>
  <text x="44" y="18" class="font s3" text-anchor="middle">v6.9.0</text>
  <circle cx="56" cy="6" r="4" fill="#248ebd"></circle>
  <text x="56" y="14" class="font s4" text-anchor="middle">yarn</text>
  <text x="56" y="18" class="font s3" text-anchor="middle">v1.15.2</text>
  <circle cx="68" cy="6" r="4" fill="#fbae00"></circle>
  <text x="68" y="14" class="font s4" text-anchor="middle">pnpm</text>
  <text x="68" y="18" class="font s3" text-anchor="middle">v3.1.1</text>
  <text x="40" y="28" class="font s5 text" text-anchor="middle">0</text>
  <text x="40" y="251.5" class="font s5 text" text-anchor="middle">0</text>
  <line x1="90" y1="31" x2="90" y2="246.5" class="line width"></line>
  <text x="90" y="28" class="font s5 text" text-anchor="middle">5</text>
  <text x="90" y="251.5" class="font s5 text" text-anchor="middle">5</text>
  <line x1="140" y1="31" x2="140" y2="246.5" class="line width"></line>
  <text x="140" y="28" class="font s5 text" text-anchor="middle">10</text>
  <text x="140" y="251.5" class="font s5 text" text-anchor="middle">10</text>
  <line x1="190" y1="31" x2="190" y2="246.5" class="line width"></line>
  <text x="190" y="28" class="font s5 text" text-anchor="middle">15</text>
  <text x="190" y="251.5" class="font s5 text" text-anchor="middle">15</text>
  <line x1="240" y1="31" x2="240" y2="246.5" class="line width"></line>
  <text x="240" y="28" class="font s5 text" text-anchor="middle">20</text>
  <text x="240" y="251.5" class="font s5 text" text-anchor="middle">20</text>
  <line x1="290" y1="31" x2="290" y2="246.5" class="line width"></line>
  <text x="290" y="28" class="font s5 text" text-anchor="middle">25</text>
  <text x="290" y="251.5" class="font s5 text" text-anchor="middle">25</text>
  <text x="290" y="20" class="font s4 text" font-style="italic" text-anchor="end">Installation time in seconds (lower is better)</text>
  <rect x="40" y="35" width="225" height="6" fill="#cd3731" rx="1" ry="1"></rect>
  <rect x="40" y="41.5" width="166" height="6" fill="#248ebd" rx="1" ry="1"></rect>
  <rect x="40" y="48" width="144" height="6" fill="#fbae00" rx="1" ry="1"></rect>
  <rect x="40" y="58.5" width="59" height="6" fill="#cd3731" rx="1" ry="1"></rect>
  <rect x="40" y="65" width="8" height="6" fill="#248ebd" rx="1" ry="1"></rect>
  <rect x="40" y="71.5" width="11" height="6" fill="#fbae00" rx="1" ry="1"></rect>
  <rect x="40" y="82" width="103" height="6" fill="#cd3731" rx="1" ry="1"></rect>
  <rect x="40" y="88.5" width="39" height="6" fill="#248ebd" rx="1" ry="1"></rect>
  <rect x="40" y="95" width="44" height="6" fill="#fbae00" rx="1" ry="1"></rect>
  <rect x="40" y="105.5" width="125" height="6" fill="#cd3731" rx="1" ry="1"></rect>
  <rect x="40" y="112" width="91" height="6" fill="#248ebd" rx="1" ry="1"></rect>
  <rect x="40" y="118.5" width="78" height="6" fill="#fbae00" rx="1" ry="1"></rect>
  <rect x="40" y="129" width="135" height="6" fill="#cd3731" rx="1" ry="1"></rect>
  <rect x="40" y="135.5" width="109" height="6" fill="#248ebd" rx="1" ry="1"></rect>
  <rect x="40" y="142" width="118" height="6" fill="#fbae00" rx="1" ry="1"></rect>
  <rect x="40" y="152.5" width="59" height="6" fill="#cd3731" rx="1" ry="1"></rect>
  <rect x="40" y="159" width="79" height="6" fill="#248ebd" rx="1" ry="1"></rect>
  <rect x="40" y="165.5" width="15" height="6" fill="#fbae00" rx="1" ry="1"></rect>
  <rect x="40" y="176" width="62" height="6" fill="#cd3731" rx="1" ry="1"></rect>
  <rect x="40" y="182.5" width="7" height="6" fill="#248ebd" rx="1" ry="1"></rect>
  <rect x="40" y="189" width="11" height="6" fill="#fbae00" rx="1" ry="1"></rect>
  <rect x="40" y="199.5" width="59" height="6" fill="#cd3731" rx="1" ry="1"></rect>
  <rect x="40" y="206" width="160" height="6" fill="#248ebd" rx="1" ry="1"></rect>
  <rect x="40" y="212.5" width="24" height="6" fill="#fbae00" rx="1" ry="1"></rect>
  <rect x="40" y="223" width="59" height="6" fill="#cd3731" rx="1" ry="1"></rect>
  <rect x="40" y="229.5" width="154" height="6" fill="#248ebd" rx="1" ry="1"></rect>
  <rect x="40" y="236" width="164" height="6" fill="#fbae00" rx="1" ry="1"></rect>
  <line x1="40" y1="31" x2="40" y2="246.5" class="line"></line>
  <text x="38" y="44.5" class="font s4" dominant-baseline="middle" text-anchor="end">clean install</text>
  <text x="38" y="64" class="font s4" dominant-baseline="middle" text-anchor="end">with cache</text>
  <text x="38" y="68" class="font s4" dominant-baseline="middle" text-anchor="end">with lockfile</text>
  <text x="38" y="72" class="font s4" dominant-baseline="middle" text-anchor="end">with node_modules</text>
  <text x="38" y="89.5" class="font s4" dominant-baseline="middle" text-anchor="end">with cache</text>
  <text x="38" y="93.5" class="font s4" dominant-baseline="middle" text-anchor="end">with lockfile</text>
  <text x="38" y="115" class="font s4" dominant-baseline="middle" text-anchor="end">with cache</text>
  <text x="38" y="138.5" class="font s4" dominant-baseline="middle" text-anchor="end">with lockfile</text>
  <text x="38" y="160" class="font s4" dominant-baseline="middle" text-anchor="end">with cache</text>
  <text x="38" y="164" class="font s4" dominant-baseline="middle" text-anchor="end">with node_modules</text>
  <text x="38" y="183.5" class="font s4" dominant-baseline="middle" text-anchor="end">with node_modules</text>
  <text x="38" y="187.5" class="font s4" dominant-baseline="middle" text-anchor="end">with lockfile</text>
  <text x="38" y="209" class="font s4" dominant-baseline="middle" text-anchor="end">with node_modules</text>
  <text x="38" y="232.5" class="font s4" dominant-baseline="middle" text-anchor="end">update</text>
  <text x="290" y="258.5" class="font s4 text" text-anchor="end">Tests were run using Node.js v10.12.0</text>
</svg>
