<svg version="1.1" xmlns="http://www.w3.org/2000/svg" viewBox="0 0 300 319">
  <style>
    .font { font-family: sans-serif; }
    .s3 { font-size: 3px; }
    .s4 { font-size: 4px; }
    .s5 { font-size: 5px; }
    .line { stroke: #cacaca; }
    .width { stroke-width: 0.5; }
    .text { fill: #888; }
  </style>
  <circle cx="44" cy="6" r="4" fill="#cd3731"></circle>
  <text x="44" y="14" class="font s4" text-anchor="middle">npm</text>
  <text x="44" y="18" class="font s3" text-anchor="middle">v6.9.0</text>
  <circle cx="56" cy="6" r="4" fill="#cd3731"></circle>
  <text x="56" y="14" class="font s4" text-anchor="middle">Yarn</text>
  <text x="56" y="18" class="font s3" text-anchor="middle">v1.16.0</text>
  <circle cx="68" cy="6" r="4" fill="#cd3731"></circle>
  <text x="68" y="14" class="font s4" text-anchor="middle">Yarn P'n'P</text>
  <text x="68" y="18" class="font s3" text-anchor="middle">v1.16.0</text>
  <circle cx="80" cy="6" r="4" fill="#fbae00"></circle>
  <text x="80" y="14" class="font s4" text-anchor="middle">pnpm</text>
  <text x="80" y="18" class="font s3" text-anchor="middle">v3.5.0</text>
  <text x="40" y="28" class="font s5 text" text-anchor="middle">0</text>
  <text x="40" y="310" class="font s5 text" text-anchor="middle">0</text>
  <line x1="90" y1="31" x2="90" y2="305" class="line width"></line>
  <text x="90" y="28" class="font s5 text" text-anchor="middle">7</text>
  <text x="90" y="310" class="font s5 text" text-anchor="middle">7</text>
  <line x1="140" y1="31" x2="140" y2="305" class="line width"></line>
  <text x="140" y="28" class="font s5 text" text-anchor="middle">14</text>
  <text x="140" y="310" class="font s5 text" text-anchor="middle">14</text>
  <line x1="190" y1="31" x2="190" y2="305" class="line width"></line>
  <text x="190" y="28" class="font s5 text" text-anchor="middle">21</text>
  <text x="190" y="310" class="font s5 text" text-anchor="middle">21</text>
  <line x1="240" y1="31" x2="240" y2="305" class="line width"></line>
  <text x="240" y="28" class="font s5 text" text-anchor="middle">28</text>
  <text x="240" y="310" class="font s5 text" text-anchor="middle">28</text>
  <line x1="290" y1="31" x2="290" y2="305" class="line width"></line>
  <text x="290" y="28" class="font s5 text" text-anchor="middle">35</text>
  <text x="290" y="310" class="font s5 text" text-anchor="middle">35</text>
  <text x="290" y="20" class="font s4 text" font-style="italic" text-anchor="end">Installation time in seconds (lower is better)</text>
  <rect x="40" y="35" width="172" height="6" fill="#cd3731" rx="1" ry="1"></rect>
  <rect x="40" y="41.5" width="119" height="6" fill="#cd3731" rx="1" ry="1"></rect>
  <rect x="40" y="48" width="245" height="6" fill="#cd3731" rx="1" ry="1"></rect>
  <rect x="40" y="54.5" width="123" height="6" fill="#fbae00" rx="1" ry="1"></rect>
  <rect x="40" y="65" width="44" height="6" fill="#cd3731" rx="1" ry="1"></rect>
  <rect x="40" y="71.5" width="6" height="6" fill="#cd3731" rx="1" ry="1"></rect>
  <rect x="40" y="78" width="1" height="6" fill="#cd3731" rx="1" ry="1"></rect>
  <rect x="40" y="84.5" width="9" height="6" fill="#fbae00" rx="1" ry="1"></rect>
  <rect x="40" y="95" width="77" height="6" fill="#cd3731" rx="1" ry="1"></rect>
  <rect x="40" y="101.5" width="27" height="6" fill="#cd3731" rx="1" ry="1"></rect>
  <rect x="40" y="108" width="12" height="6" fill="#cd3731" rx="1" ry="1"></rect>
  <rect x="40" y="114.5" width="35" height="6" fill="#fbae00" rx="1" ry="1"></rect>
  <rect x="40" y="125" width="90" height="6" fill="#cd3731" rx="1" ry="1"></rect>
  <rect x="40" y="131.5" width="64" height="6" fill="#cd3731" rx="1" ry="1"></rect>
  <rect x="40" y="138" width="52" height="6" fill="#cd3731" rx="1" ry="1"></rect>
  <rect x="40" y="144.5" width="59" height="6" fill="#fbae00" rx="1" ry="1"></rect>
  <rect x="40" y="155" width="99" height="6" fill="#cd3731" rx="1" ry="1"></rect>
  <rect x="40" y="161.5" width="76" height="6" fill="#cd3731" rx="1" ry="1"></rect>
  <rect x="40" y="168" width="68" height="6" fill="#cd3731" rx="1" ry="1"></rect>
  <rect x="40" y="174.5" width="101" height="6" fill="#fbae00" rx="1" ry="1"></rect>
  <rect x="40" y="185" width="41" height="6" fill="#cd3731" rx="1" ry="1"></rect>
  <rect x="40" y="191.5" width="59" height="6" fill="#cd3731" rx="1" ry="1"></rect>
  <rect x="40" y="198" width="1" height="6" fill="#cd3731" rx="1" ry="1"></rect>
  <rect x="40" y="204.5" width="11" height="6" fill="#fbae00" rx="1" ry="1"></rect>
  <rect x="40" y="215" width="44" height="6" fill="#cd3731" rx="1" ry="1"></rect>
  <rect x="40" y="221.5" width="6" height="6" fill="#cd3731" rx="1" ry="1"></rect>
  <rect x="40" y="228" width="1" height="6" fill="#cd3731" rx="1" ry="1"></rect>
  <rect x="40" y="234.5" width="8" height="6" fill="#fbae00" rx="1" ry="1"></rect>
  <rect x="40" y="245" width="42" height="6" fill="#cd3731" rx="1" ry="1"></rect>
  <rect x="40" y="251.5" width="119" height="6" fill="#cd3731" rx="1" ry="1"></rect>
  <rect x="40" y="258" width="1" height="6" fill="#cd3731" rx="1" ry="1"></rect>
  <rect x="40" y="264.5" width="18" height="6" fill="#fbae00" rx="1" ry="1"></rect>
  <rect x="40" y="275" width="43" height="6" fill="#cd3731" rx="1" ry="1"></rect>
  <rect x="40" y="281.5" width="104" height="6" fill="#cd3731" rx="1" ry="1"></rect>
  <rect x="40" y="288" width="121" height="6" fill="#cd3731" rx="1" ry="1"></rect>
  <rect x="40" y="294.5" width="138" height="6" fill="#fbae00" rx="1" ry="1"></rect>
  <line x1="40" y1="31" x2="40" y2="305" class="line"></line>
  <text x="38" y="44.5" class="font s4" dominant-baseline="middle" text-anchor="end">clean install</text>
  <text x="38" y="70.5" class="font s4" dominant-baseline="middle" text-anchor="end">with cache</text>
  <text x="38" y="74.5" class="font s4" dominant-baseline="middle" text-anchor="end">with lockfile</text>
  <text x="38" y="78.5" class="font s4" dominant-baseline="middle" text-anchor="end">with node_modules</text>
  <text x="38" y="102.5" class="font s4" dominant-baseline="middle" text-anchor="end">with cache</text>
  <text x="38" y="106.5" class="font s4" dominant-baseline="middle" text-anchor="end">with lockfile</text>
  <text x="38" y="134.5" class="font s4" dominant-baseline="middle" text-anchor="end">with cache</text>
  <text x="38" y="164.5" class="font s4" dominant-baseline="middle" text-anchor="end">with lockfile</text>
  <text x="38" y="192.5" class="font s4" dominant-baseline="middle" text-anchor="end">with cache</text>
  <text x="38" y="196.5" class="font s4" dominant-baseline="middle" text-anchor="end">with node_modules</text>
  <text x="38" y="222.5" class="font s4" dominant-baseline="middle" text-anchor="end">with node_modules</text>
  <text x="38" y="226.5" class="font s4" dominant-baseline="middle" text-anchor="end">with lockfile</text>
  <text x="38" y="254.5" class="font s4" dominant-baseline="middle" text-anchor="end">with node_modules</text>
  <text x="38" y="284.5" class="font s4" dominant-baseline="middle" text-anchor="end">update</text>
  <text x="290" y="317" class="font s4 text" text-anchor="end">Tests were run using Node.js v10.12.0</text>
</svg>
