<svg version="1.1" xmlns="http://www.w3.org/2000/svg" viewBox="0 0 355 144"><rect x="22.5" y="5" width="10" height="10" fill="#cd3731"></rect><text x="37" y="10" font-size="6" font-family="system-ui" alignment-baseline="middle">npm</text><rect x="105.5" y="5" width="10" height="10" fill="#248ebd"></rect><text x="120" y="10" font-size="6" font-family="system-ui" alignment-baseline="middle">yarn</text><rect x="188.5" y="5" width="10" height="10" fill="#4c4c4c"></rect><text x="203" y="10" font-size="6" font-family="system-ui" alignment-baseline="middle">pnpm</text><line x1="10" y1="20" x2="345" y2="20" stroke-width="1" stroke="#cacaca"></line><text x="9" y="20" font-size="6" font-family="system-ui" alignment-baseline="middle" text-anchor="end">40</text><line x1="10" y1="40" x2="345" y2="40" stroke-width="1" stroke="#cacaca"></line><text x="9" y="40" font-size="6" font-family="system-ui" alignment-baseline="middle" text-anchor="end">32</text><line x1="10" y1="60" x2="345" y2="60" stroke-width="1" stroke="#cacaca"></line><text x="9" y="60" font-size="6" font-family="system-ui" alignment-baseline="middle" text-anchor="end">24</text><line x1="10" y1="80" x2="345" y2="80" stroke-width="1" stroke="#cacaca"></line><text x="9" y="80" font-size="6" font-family="system-ui" alignment-baseline="middle" text-anchor="end">16</text><line x1="10" y1="100" x2="345" y2="100" stroke-width="1" stroke="#cacaca"></line><text x="9" y="100" font-size="6" font-family="system-ui" alignment-baseline="middle" text-anchor="end">8</text><line x1="10" y1="120" x2="345" y2="120" stroke-width="1" stroke="#cacaca"></line><text x="9" y="120" font-size="6" font-family="system-ui" alignment-baseline="middle" text-anchor="end">0</text><rect x="20" y="28" width="15" height="92" fill="#cd3731"></rect><rect x="37" y="49" width="15" height="71" fill="#248ebd"></rect><rect x="54" y="62" width="15" height="58" fill="#4c4c4c"></rect><text x="20" y="122" font-size="6" font-family="system-ui" alignment-baseline="hanging" text-anchor="start">clean install</text><rect x="86" y="93" width="15" height="27" fill="#cd3731"></rect><rect x="103" y="117" width="15" height="3" fill="#248ebd"></rect><rect x="120" y="117" width="15" height="3" fill="#4c4c4c"></rect><text x="86" y="122" font-size="6" font-family="system-ui" alignment-baseline="hanging" text-anchor="start">cache</text><text x="86" y="128" font-size="6" font-family="system-ui" alignment-baseline="hanging" text-anchor="start">lockfile</text><text x="86" y="134" font-size="6" font-family="system-ui" alignment-baseline="hanging" text-anchor="start">node_modules</text><rect x="152" y="66" width="15" height="54" fill="#cd3731"></rect><rect x="169" y="97" width="15" height="23" fill="#248ebd"></rect><rect x="186" y="100" width="15" height="20" fill="#4c4c4c"></rect><text x="152" y="122" font-size="6" font-family="system-ui" alignment-baseline="hanging" text-anchor="start">cache</text><text x="152" y="128" font-size="6" font-family="system-ui" alignment-baseline="hanging" text-anchor="start">lockfile</text><rect x="218" y="49" width="15" height="71" fill="#cd3731"></rect><rect x="235" y="74" width="15" height="46" fill="#248ebd"></rect><rect x="252" y="93" width="15" height="27" fill="#4c4c4c"></rect><text x="218" y="122" font-size="6" font-family="system-ui" alignment-baseline="hanging" text-anchor="start">cache</text><rect x="284" y="57" width="15" height="63" fill="#cd3731"></rect><rect x="301" y="74" width="15" height="46" fill="#248ebd"></rect><rect x="318" y="70" width="15" height="50" fill="#4c4c4c"></rect><text x="284" y="122" font-size="6" font-family="system-ui" alignment-baseline="hanging" text-anchor="start">lockfile</text></svg>