<svg version="1.1" xmlns="http://www.w3.org/2000/svg" viewBox="0 0 300 319">
  <style>
    .font { font-family: sans-serif; }
    .s3 { font-size: 3px; }
    .s4 { font-size: 4px; }
    .s5 { font-size: 5px; }
    .line { stroke: #cacaca; }
    .width { stroke-width: 0.5; }
    .text { fill: #888; }
  </style>
  <circle cx="44" cy="6" r="4" fill="#cd3731"></circle>
  <text x="44" y="14" class="font s4" text-anchor="middle">npm</text>
  <text x="44" y="18" class="font s3" text-anchor="middle">v6.9.0</text>
  <circle cx="60" cy="6" r="4" fill="#248ebd"></circle>
  <text x="60" y="14" class="font s4" text-anchor="middle">Yarn</text>
  <text x="60" y="18" class="font s3" text-anchor="middle">v1.16.0</text>
  <circle cx="76" cy="6" r="4" fill="#248ebd"></circle>
  <text x="76" y="14" class="font s4" text-anchor="middle">Yarn PnP</text>
  <text x="76" y="18" class="font s3" text-anchor="middle">v1.16.0</text>
  <circle cx="92" cy="6" r="4" fill="#fbae00"></circle>
  <text x="92" y="14" class="font s4" text-anchor="middle">pnpm</text>
  <text x="92" y="18" class="font s3" text-anchor="middle">v3.5.0</text>
  <text x="40" y="28" class="font s5 text" text-anchor="middle">0</text>
  <text x="40" y="310" class="font s5 text" text-anchor="middle">0</text>
  <line x1="90" y1="31" x2="90" y2="305" class="line width"></line>
  <text x="90" y="28" class="font s5 text" text-anchor="middle">5</text>
  <text x="90" y="310" class="font s5 text" text-anchor="middle">5</text>
  <line x1="140" y1="31" x2="140" y2="305" class="line width"></line>
  <text x="140" y="28" class="font s5 text" text-anchor="middle">10</text>
  <text x="140" y="310" class="font s5 text" text-anchor="middle">10</text>
  <line x1="190" y1="31" x2="190" y2="305" class="line width"></line>
  <text x="190" y="28" class="font s5 text" text-anchor="middle">15</text>
  <text x="190" y="310" class="font s5 text" text-anchor="middle">15</text>
  <line x1="240" y1="31" x2="240" y2="305" class="line width"></line>
  <text x="240" y="28" class="font s5 text" text-anchor="middle">20</text>
  <text x="240" y="310" class="font s5 text" text-anchor="middle">20</text>
  <line x1="290" y1="31" x2="290" y2="305" class="line width"></line>
  <text x="290" y="28" class="font s5 text" text-anchor="middle">25</text>
  <text x="290" y="310" class="font s5 text" text-anchor="middle">25</text>
  <text x="290" y="20" class="font s4 text" font-style="italic" text-anchor="end">Installation time in seconds (lower is better)</text>
  <rect x="40" y="35" width="228" height="6" fill="#cd3731" rx="1" ry="1"></rect>
  <rect x="40" y="41.5" width="245" height="6" fill="#248ebd" rx="1" ry="1"></rect>
  <rect x="40" y="48" width="196" height="6" fill="#248ebd" rx="1" ry="1"></rect>
  <rect x="40" y="54.5" width="188" height="6" fill="#fbae00" rx="1" ry="1"></rect>
  <rect x="40" y="65" width="63" height="6" fill="#cd3731" rx="1" ry="1"></rect>
  <rect x="40" y="71.5" width="8" height="6" fill="#248ebd" rx="1" ry="1"></rect>
  <rect x="40" y="78" width="0" height="6" fill="#248ebd" rx="1" ry="1"></rect>
  <rect x="40" y="84.5" width="11" height="6" fill="#fbae00" rx="1" ry="1"></rect>
  <rect x="40" y="95" width="126" height="6" fill="#cd3731" rx="1" ry="1"></rect>
  <rect x="40" y="101.5" width="50" height="6" fill="#248ebd" rx="1" ry="1"></rect>
  <rect x="40" y="108" width="18" height="6" fill="#248ebd" rx="1" ry="1"></rect>
  <rect x="40" y="114.5" width="54" height="6" fill="#fbae00" rx="1" ry="1"></rect>
  <rect x="40" y="125" width="158" height="6" fill="#cd3731" rx="1" ry="1"></rect>
  <rect x="40" y="131.5" width="132" height="6" fill="#248ebd" rx="1" ry="1"></rect>
  <rect x="40" y="138" width="88" height="6" fill="#248ebd" rx="1" ry="1"></rect>
  <rect x="40" y="144.5" width="88" height="6" fill="#fbae00" rx="1" ry="1"></rect>
  <rect x="40" y="155" width="167" height="6" fill="#cd3731" rx="1" ry="1"></rect>
  <rect x="40" y="161.5" width="145" height="6" fill="#248ebd" rx="1" ry="1"></rect>
  <rect x="40" y="168" width="107" height="6" fill="#248ebd" rx="1" ry="1"></rect>
  <rect x="40" y="174.5" width="156" height="6" fill="#fbae00" rx="1" ry="1"></rect>
  <rect x="40" y="185" width="96" height="6" fill="#cd3731" rx="1" ry="1"></rect>
  <rect x="40" y="191.5" width="105" height="6" fill="#248ebd" rx="1" ry="1"></rect>
  <rect x="40" y="198" width="0" height="6" fill="#248ebd" rx="1" ry="1"></rect>
  <rect x="40" y="204.5" width="28" height="6" fill="#fbae00" rx="1" ry="1"></rect>
  <rect x="40" y="215" width="67" height="6" fill="#cd3731" rx="1" ry="1"></rect>
  <rect x="40" y="221.5" width="7" height="6" fill="#248ebd" rx="1" ry="1"></rect>
  <rect x="40" y="228" width="0" height="6" fill="#248ebd" rx="1" ry="1"></rect>
  <rect x="40" y="234.5" width="11" height="6" fill="#fbae00" rx="1" ry="1"></rect>
  <rect x="40" y="245" width="63" height="6" fill="#cd3731" rx="1" ry="1"></rect>
  <rect x="40" y="251.5" width="206" height="6" fill="#248ebd" rx="1" ry="1"></rect>
  <rect x="40" y="258" width="0" height="6" fill="#248ebd" rx="1" ry="1"></rect>
  <rect x="40" y="264.5" width="70" height="6" fill="#fbae00" rx="1" ry="1"></rect>
  <rect x="40" y="275" width="65" height="6" fill="#cd3731" rx="1" ry="1"></rect>
  <rect x="40" y="281.5" width="209" height="6" fill="#248ebd" rx="1" ry="1"></rect>
  <rect x="40" y="288" width="163" height="6" fill="#248ebd" rx="1" ry="1"></rect>
  <rect x="40" y="294.5" width="180" height="6" fill="#fbae00" rx="1" ry="1"></rect>
  <line x1="40" y1="31" x2="40" y2="305" class="line"></line>
  <text x="38" y="44.5" class="font s4" dominant-baseline="middle" text-anchor="end">clean install</text>
  <text x="38" y="70.5" class="font s4" dominant-baseline="middle" text-anchor="end">with cache</text>
  <text x="38" y="74.5" class="font s4" dominant-baseline="middle" text-anchor="end">with lockfile</text>
  <text x="38" y="78.5" class="font s4" dominant-baseline="middle" text-anchor="end">with node_modules</text>
  <text x="38" y="102.5" class="font s4" dominant-baseline="middle" text-anchor="end">with cache</text>
  <text x="38" y="106.5" class="font s4" dominant-baseline="middle" text-anchor="end">with lockfile</text>
  <text x="38" y="134.5" class="font s4" dominant-baseline="middle" text-anchor="end">with cache</text>
  <text x="38" y="164.5" class="font s4" dominant-baseline="middle" text-anchor="end">with lockfile</text>
  <text x="38" y="192.5" class="font s4" dominant-baseline="middle" text-anchor="end">with cache</text>
  <text x="38" y="196.5" class="font s4" dominant-baseline="middle" text-anchor="end">with node_modules</text>
  <text x="38" y="222.5" class="font s4" dominant-baseline="middle" text-anchor="end">with node_modules</text>
  <text x="38" y="226.5" class="font s4" dominant-baseline="middle" text-anchor="end">with lockfile</text>
  <text x="38" y="254.5" class="font s4" dominant-baseline="middle" text-anchor="end">with node_modules</text>
  <text x="38" y="284.5" class="font s4" dominant-baseline="middle" text-anchor="end">update</text>
  <text x="290" y="317" class="font s4 text" text-anchor="end">Tests were run using Node.js v10.12.0</text>
</svg>
