<svg version="1.1" xmlns="http://www.w3.org/2000/svg" viewBox="0 0 300 185">
  <circle cx="44" cy="6" r="4" fill="#cd3731"></circle>
  <text x="44" y="11" font-size="4" font-family="system-ui" alignment-baseline="hanging" text-anchor="middle">pnpm1</text>
  <text x="44" y="16" font-size="3" font-family="system-ui" alignment-baseline="hanging" text-anchor="middle">v1.0.1</text>
  <circle cx="56" cy="6" r="4" fill="#248ebd"></circle>
  <text x="56" y="11" font-size="4" font-family="system-ui" alignment-baseline="hanging" text-anchor="middle">pnpm</text>
  <text x="56" y="16" font-size="3" font-family="system-ui" alignment-baseline="hanging" text-anchor="middle">v2.0.0</text>
  <text x="40" y="28" fill="#888" font-size="5" font-family="system-ui" text-anchor="middle">0</text>
  <text x="40" y="172" fill="#888" font-size="5" font-family="system-ui" text-anchor="middle" alignment-baseline="hanging">0</text>
  <line x1="90" y1="31" x2="90" y2="171" stroke-width="0.5" stroke="#cacaca"></line>
  <text x="90" y="28" fill="#888" font-size="5" font-family="system-ui" text-anchor="middle">4</text>
  <text x="90" y="172" fill="#888" font-size="5" font-family="system-ui" text-anchor="middle" alignment-baseline="hanging">4</text>
  <line x1="140" y1="31" x2="140" y2="171" stroke-width="0.5" stroke="#cacaca"></line>
  <text x="140" y="28" fill="#888" font-size="5" font-family="system-ui" text-anchor="middle">8</text>
  <text x="140" y="172" fill="#888" font-size="5" font-family="system-ui" text-anchor="middle" alignment-baseline="hanging">8</text>
  <line x1="190" y1="31" x2="190" y2="171" stroke-width="0.5" stroke="#cacaca"></line>
  <text x="190" y="28" fill="#888" font-size="5" font-family="system-ui" text-anchor="middle">12</text>
  <text x="190" y="172" fill="#888" font-size="5" font-family="system-ui" text-anchor="middle" alignment-baseline="hanging">12</text>
  <line x1="240" y1="31" x2="240" y2="171" stroke-width="0.5" stroke="#cacaca"></line>
  <text x="240" y="28" fill="#888" font-size="5" font-family="system-ui" text-anchor="middle">16</text>
  <text x="240" y="172" fill="#888" font-size="5" font-family="system-ui" text-anchor="middle" alignment-baseline="hanging">16</text>
  <line x1="290" y1="31" x2="290" y2="171" stroke-width="0.5" stroke="#cacaca"></line>
  <text x="290" y="28" fill="#888" font-size="5" font-family="system-ui" text-anchor="middle">20</text>
  <text x="290" y="172" fill="#888" font-size="5" font-family="system-ui" text-anchor="middle" alignment-baseline="hanging">20</text>
  <text x="290" y="20" font-size="4" font-family="system-ui" font-style="italic" text-anchor="end" fill="#888">Installation time in seconds (lower is better)</text>
  <rect x="40" y="35" width="240" height="6" fill="#cd3731" rx="1" ry="1"></rect>
  <rect x="40" y="41.5" width="246" height="6" fill="#248ebd" rx="1" ry="1"></rect>
  <rect x="40" y="52" width="15" height="6" fill="#cd3731" rx="1" ry="1"></rect>
  <rect x="40" y="58.5" width="13" height="6" fill="#248ebd" rx="1" ry="1"></rect>
  <rect x="40" y="69" width="108" height="6" fill="#cd3731" rx="1" ry="1"></rect>
  <rect x="40" y="75.5" width="93" height="6" fill="#248ebd" rx="1" ry="1"></rect>
  <rect x="40" y="86" width="134" height="6" fill="#cd3731" rx="1" ry="1"></rect>
  <rect x="40" y="92.5" width="139" height="6" fill="#248ebd" rx="1" ry="1"></rect>
  <rect x="40" y="103" width="215" height="6" fill="#cd3731" rx="1" ry="1"></rect>
  <rect x="40" y="109.5" width="208" height="6" fill="#248ebd" rx="1" ry="1"></rect>
  <rect x="40" y="120" width="91" height="6" fill="#cd3731" rx="1" ry="1"></rect>
  <rect x="40" y="126.5" width="94" height="6" fill="#248ebd" rx="1" ry="1"></rect>
  <rect x="40" y="137" width="14" height="6" fill="#cd3731" rx="1" ry="1"></rect>
  <rect x="40" y="143.5" width="11" height="6" fill="#248ebd" rx="1" ry="1"></rect>
  <rect x="40" y="154" width="200" height="6" fill="#cd3731" rx="1" ry="1"></rect>
  <rect x="40" y="160.5" width="213" height="6" fill="#248ebd" rx="1" ry="1"></rect>
  <line x1="40" y1="31" x2="40" y2="171" stroke-width="1" stroke="#cacaca"></line>
  <text x="38" y="44.5" font-size="4" font-family="system-ui" alignment-baseline="middle" text-anchor="end">clean install</text>
  <text x="38" y="57.5" font-size="4" font-family="system-ui" alignment-baseline="middle" text-anchor="end">with cache</text>
  <text x="38" y="61.5" font-size="4" font-family="system-ui" alignment-baseline="middle" text-anchor="end">with lockfile</text>
  <text x="38" y="65.5" font-size="4" font-family="system-ui" alignment-baseline="middle" text-anchor="end">with node_modules</text>
  <text x="38" y="76.5" font-size="4" font-family="system-ui" alignment-baseline="middle" text-anchor="end">with cache</text>
  <text x="38" y="80.5" font-size="4" font-family="system-ui" alignment-baseline="middle" text-anchor="end">with lockfile</text>
  <text x="38" y="95.5" font-size="4" font-family="system-ui" alignment-baseline="middle" text-anchor="end">with cache</text>
  <text x="38" y="112.5" font-size="4" font-family="system-ui" alignment-baseline="middle" text-anchor="end">with lockfile</text>
  <text x="38" y="127.5" font-size="4" font-family="system-ui" alignment-baseline="middle" text-anchor="end">with cache</text>
  <text x="38" y="131.5" font-size="4" font-family="system-ui" alignment-baseline="middle" text-anchor="end">with node_modules</text>
  <text x="38" y="144.5" font-size="4" font-family="system-ui" alignment-baseline="middle" text-anchor="end">with node_modules</text>
  <text x="38" y="148.5" font-size="4" font-family="system-ui" alignment-baseline="middle" text-anchor="end">with lockfile</text>
  <text x="38" y="163.5" font-size="4" font-family="system-ui" alignment-baseline="middle" text-anchor="end">with node_modules</text>
  <text x="290" y="183" font-size="4" font-family="system-ui" text-anchor="end" fill="#888">Tests were run using Node.js v10.0.0</text>
</svg>
